<svg xmlns="http://www.w3.org/2000/svg" xmlns:xlink="http://www.w3.org/1999/xlink" viewBox="0 0 129 308.44"><defs><style>.a,.b,.d,.e{fill:none;}.b{stroke:#fc6;stroke-width:1.5px;}.c{fill:#a67c52;}.c,.d,.e{stroke:#000;stroke-miterlimit:10;}.c,.d{stroke-width:2px;}.d{stroke-dasharray:6;}.e{stroke-width:4px;}.f{fill:url(#a);}.g{font-size:18px;font-family:Arial-Black, Arial Black;}</style><pattern id="a" width="72" height="72" patternTransform="matrix(0.49, -0.71, 0.49, 0.71, 71.81, 38.11)" patternUnits="userSpaceOnUse" viewBox="0 0 72 72"><rect class="a" width="72" height="72"/><line class="b" x1="71.75" y1="68.4" x2="144.25" y2="68.4"/><line class="b" x1="71.75" y1="54" x2="144.25" y2="54"/><line class="b" x1="71.75" y1="39.6" x2="144.25" y2="39.6"/><line class="b" x1="71.75" y1="25.2" x2="144.25" y2="25.2"/><line class="b" x1="71.75" y1="10.8" x2="144.25" y2="10.8"/><line class="b" x1="71.75" y1="61.2" x2="144.25" y2="61.2"/><line class="b" x1="71.75" y1="46.8" x2="144.25" y2="46.8"/><line class="b" x1="71.75" y1="32.4" x2="144.25" y2="32.4"/><line class="b" x1="71.75" y1="18" x2="144.25" y2="18"/><line class="b" x1="71.75" y1="3.6" x2="144.25" y2="3.6"/><line class="b" x1="-0.25" y1="68.4" x2="72.25" y2="68.4"/><line class="b" x1="-0.25" y1="54" x2="72.25" y2="54"/><line class="b" x1="-0.25" y1="39.6" x2="72.25" y2="39.6"/><line class="b" x1="-0.25" y1="25.2" x2="72.25" y2="25.2"/><line class="b" x1="-0.25" y1="10.8" x2="72.25" y2="10.8"/><line class="b" x1="-0.25" y1="61.2" x2="72.25" y2="61.2"/><line class="b" x1="-0.25" y1="46.8" x2="72.25" y2="46.8"/><line class="b" x1="-0.25" y1="32.4" x2="72.25" y2="32.4"/><line class="b" x1="-0.25" y1="18" x2="72.25" y2="18"/><line class="b" x1="-0.25" y1="3.6" x2="72.25" y2="3.6"/><line class="b" x1="-72.25" y1="68.4" x2="0.25" y2="68.4"/><line class="b" x1="-72.25" y1="54" x2="0.25" y2="54"/><line class="b" x1="-72.25" y1="39.6" x2="0.25" y2="39.6"/><line class="b" x1="-72.25" y1="25.2" x2="0.25" y2="25.2"/><line class="b" x1="-72.25" y1="10.8" x2="0.25" y2="10.8"/><line class="b" x1="-72.25" y1="61.2" x2="0.25" y2="61.2"/><line class="b" x1="-72.25" y1="46.8" x2="0.25" y2="46.8"/><line class="b" x1="-72.25" y1="32.4" x2="0.25" y2="32.4"/><line class="b" x1="-72.25" y1="18" x2="0.25" y2="18"/><line class="b" x1="-72.25" y1="3.6" x2="0.25" y2="3.6"/></pattern></defs><title>help_ws</title><path class="c" d="M534.18,405.5a187.13,187.13,0,0,0-108.36,0,10.5,10.5,0,0,1-6.58-2.35,7.46,7.46,0,0,1-2.74-5.65v-235c0-4.4,4.19-8,9.32-8a198.31,198.31,0,0,0,53,7.5,198.48,198.48,0,0,0,55.34-7.5,10.5,10.5,0,0,1,6.58,2.35,7.46,7.46,0,0,1,2.74,5.65v235C543.5,401.9,539.31,405.5,534.18,405.5Z" transform="translate(-415.5 -118.56)"/><line class="d" x1="25.5" y1="9.44" x2="25.5" y2="308.44"/><line class="d" x1="103.5" y1="9.44" x2="103.5" y2="308.44"/><line class="e" x1="36.26" y1="23.44" x2="92.74" y2="23.44"/><polygon points="38.24 30.23 26.5 23.44 38.24 16.66 38.24 30.23"/><polygon points="90.76 30.23 102.5 23.44 90.76 16.66 90.76 30.23"/><path class="f" d="M518,401.37a179.12,179.12,0,0,0-38-3.87c-22.88.13-38,4.08-38,4.08V158.5s25.42,4.13,36.4,4a263.59,263.59,0,0,0,39.6-4Z" transform="translate(-415.5 -118.56)"/><text class="g" transform="translate(55.5 15.44)">W</text></svg>