<svg xmlns="http://www.w3.org/2000/svg" viewBox="0 0 180 300"><defs><style>.a{fill:#a67c52;stroke-width:3px;}.a,.b{stroke:#000;stroke-miterlimit:10;}.b{fill:none;stroke-linecap:round;stroke-width:11px;}</style></defs><title>help</title><path class="a" d="M92.33,265.5c-24.51-.3-44.16,6.24-56.51,10a10.5,10.5,0,0,1-6.58-2.35,7.46,7.46,0,0,1-2.74-5.65V32.5c0-4.4,4.19-8,9.32-8C48.09,28,66.36,35.87,88.83,36c16.34.09,41,.12,54.67.12a10,10,0,0,1,10,10V255.57a10,10,0,0,1-9.94,10C130.51,265.62,107.48,265.69,92.33,265.5Z"/><line class="b" x1="130" y1="34" x2="130" y2="267.62"/></svg>