<svg xmlns="http://www.w3.org/2000/svg" viewBox="0 0 299 322.96"><defs><style>.a,.b{fill:none;stroke:#000;stroke-miterlimit:10;}.a{stroke-width:4px;}.b{stroke-width:2px;stroke-dasharray:6;}.c{font-size:18px;font-family:Arial-Black, Arial Black;}</style></defs><title>help_ol</title><line class="a" x1="14.83" y1="37.8" x2="14.83" y2="281.91"/><polygon points="4.85 40.71 14.83 23.44 24.8 40.71 4.85 40.71"/><polygon points="4.85 278.99 14.83 296.26 24.8 278.99 4.85 278.99"/><line class="b" y1="23.44" x2="299" y2="23.26"/><text class="c" transform="translate(7.8 15.44)">A</text><text class="c" transform="translate(7.83 317.44)">B</text><line class="b" y1="296.26" x2="299" y2="296.26"/><path d="M196.66,159C186.5,38.18,82,62.5,82,49.56v0a7.13,7.13,0,0,0-7.14-7.07h-2.5a7.13,7.13,0,0,0-7.09,7.12L65.48,130a7.12,7.12,0,0,0,7.12,7.08h2.69c2.24,0,3.71-1.08,5.71-2.71V135c0-.27-.21-.54-.19-.8A6.85,6.85,0,0,0,82,129.95v-.29c11-17.77,67.52-4.3,64.2,57.34-4.26,59.09-54.74,93.58-92.15,114.52C98,294,196.66,257.57,196.66,159Z" transform="translate(-10 -14.74)"/><path d="M287.95,191.94c.73,20.08-18.5,110.57-18.5,110.57s-18.54-91.63-18.5-110.57c-.08-32.24-1.59-148.47-1.59-148.47h40.18S289.6,174.69,287.95,191.94Z" transform="translate(-10 -14.74)"/></svg>