<svg xmlns="http://www.w3.org/2000/svg" viewBox="0 0 184.05 254.96"><defs><style>.a{fill:#a67c52;}.a,.b,.c{stroke:#000;stroke-miterlimit:10;}.a,.c{stroke-width:2px;}.b,.c{fill:none;}.b{stroke-width:4px;}.c{stroke-dasharray:6;}.d{font-size:18px;font-family:Arial-Black, Arial Black;}</style></defs><title>help_gauge</title><path class="a" d="M534.18,405.5a187.13,187.13,0,0,0-108.36,0,10.5,10.5,0,0,1-6.58-2.35,7.46,7.46,0,0,1-2.74-5.65v-235c0-4.4,4.19-8,9.32-8a198.31,198.31,0,0,0,53,7.5,198.48,198.48,0,0,0,55.34-7.5,10.5,10.5,0,0,1,6.58,2.35,7.46,7.46,0,0,1,2.74,5.65v235C543.5,401.9,539.31,405.5,534.18,405.5Z" transform="translate(-378.45 -153.46)"/><line class="b" x1="101.55" y1="22.89" x2="101.55" y2="229.67"/><polygon points="91.58 25.81 101.55 8.54 111.52 25.81 91.58 25.81"/><polygon points="91.58 226.75 101.55 244.02 111.52 226.75 91.58 226.75"/><line class="c" x1="19.05" y1="8.54" x2="184.05" y2="8.54"/><line class="c" x1="19.05" y1="243.54" x2="184.05" y2="243.54"/><text class="d" transform="translate(0 15.44)">A</text><text class="d" transform="translate(0 249.44)">B</text></svg>