<svg xmlns="http://www.w3.org/2000/svg" viewBox="0 0 185.55 424.52"><defs><style>.a,.b{fill:none;stroke:#000;stroke-miterlimit:10;}.a{stroke-width:4px;}.b{stroke-width:2px;stroke-dasharray:6;}.c{font-size:18px;font-family:Arial-Black, Arial Black;}</style></defs><title>help_ol</title><line class="a" x1="165.2" y1="38.04" x2="21.9" y2="38.04"/><polygon points="162.28 28.07 179.55 38.04 162.28 48.01 162.28 28.07"/><polygon points="24.82 28.07 7.55 38.04 24.82 48.01 24.82 28.07"/><line class="b" x1="7.55" y1="25.04" x2="7.55" y2="424.52"/><text class="c" transform="translate(0 15.44)">A</text><text class="c" transform="translate(171.55 15.44)">B</text><path d="M121.09,434.26l3.53-2.79a100,100,0,0,0,9-8.27c1.76-1.91,3.68-4,5.56-6.39a89,89,0,0,0,5.55-8,80,80,0,0,0,8.93-20.41c.52-1.92,1-3.88,1.38-5.87s.7-4,.87-6,.3-4.07.27-6.07c0-1-.06-2-.14-3,0-.49-.08-1-.13-1.45l-.08-.72c0-.11,0,.64,0,.26v-.12l0-.24-.06-.49-.24-2-.12-1c0-.3-.11-.48-.16-.72l-.29-1.37-.14-.68-.19-.77c-.27-1-.47-2.06-.82-3s-.59-2-1-3a45.19,45.19,0,0,0-9.47-15.58,45.51,45.51,0,0,0-4.55-4.2,43.77,43.77,0,0,0-5.18-3.68c-.9-.58-1.87-1.09-2.8-1.64s-1.93-1-3-1.47a64.75,64.75,0,0,0-26.69-5.83,59.43,59.43,0,0,0-26,6,54.68,54.68,0,0,0-20,16.15,55.1,55.1,0,0,0-3.37,5.2,49.81,49.81,0,0,0-6,17.5,60.77,60.77,0,0,0,.88,24,64,64,0,0,0,8.82,19.83A99.76,99.76,0,0,0,67,422.7c3.65,3.76,6.78,6.63,8.94,8.58l3.36,3L78.19,434c-.74-.18-1.86-.39-3.28-.79l-2.39-.66c-.88-.25-1.81-.57-2.84-.9q-3.09-1-7-2.63a81.46,81.46,0,0,1-17.87-10.4A70.5,70.5,0,0,1,26.27,397.2a77.32,77.32,0,0,1-7.42-53.35,72.39,72.39,0,0,1,3.07-10.05A73.6,73.6,0,0,1,26.49,324a81.65,81.65,0,0,1,31.28-30.85,88.42,88.42,0,0,1,43.72-11.35,92.22,92.22,0,0,1,43.26,11.07,77.61,77.61,0,0,1,25.59,22l1.61,2.31q.81,1.15,1.52,2.35l1.44,2.39,1.31,2.45a73.6,73.6,0,0,1,8.07,30.18l.07,1.22,0,1.31,0,2.6c0,.42,0,.9,0,1.25l-.07,1-.14,2,0,.49,0,.25v.12c0-.29,0,.53,0,.51l-.12,1.23c-.08.82-.16,1.63-.27,2.42-.2,1.6-.5,3.15-.8,4.67a73.19,73.19,0,0,1-2.37,8.68,79.92,79.92,0,0,1-6.9,15,81.11,81.11,0,0,1-18.06,21.21,74,74,0,0,1-17.69,10.9c-1.31.55-2.55,1.05-3.72,1.5s-2.29.8-3.33,1.11l-2.88.83-2.44.57c-1.44.36-2.56.47-3.3.62Z" transform="translate(-7.22 -12.74)"/><line class="b" x1="179.55" y1="25.04" x2="179.55" y2="424.52"/><path d="M108.5,179.63c.22,0,.43-.38.62-1.14a7,7,0,0,0,.22-1.43,12,12,0,0,0,0-2,15,15,0,0,0-6.76-11.79,20.94,20.94,0,0,0-9.53-3.19,25.45,25.45,0,0,0-11.77,1.43,23.79,23.79,0,0,0-3,1.38,25.16,25.16,0,0,0-2.92,1.81,25.89,25.89,0,0,0-5.2,5,25.58,25.58,0,0,0-3.81,6.66,26.4,26.4,0,0,0-1.8,7.86,31.25,31.25,0,0,0-.06,4.1,15.83,15.83,0,0,0,.18,2.06l.26,2.08a35.41,35.41,0,0,0,14.1,22,36.27,36.27,0,0,0,8.4,4.46,38.64,38.64,0,0,0,4.66,1.44c.8.19,1.61.3,2.42.45a19,19,0,0,0,2.45.33l2.49.18c.82,0,1.61,0,2.42,0l2.43-.07,2.43-.28c.81-.11,1.63-.16,2.43-.34l2.41-.52a42.41,42.41,0,0,0,4.78-1.35,20,20,0,0,0,2.34-.87l2.32-1c1.52-.7,3-1.52,4.49-2.33l2.15-1.38a23.94,23.94,0,0,0,2.11-1.46,44.94,44.94,0,0,0,4-3.3l1.9-1.8c.61-.63,1.18-1.31,1.77-2a39.94,39.94,0,0,0,3.28-4.22,20.51,20.51,0,0,0,1.45-2.29l1.36-2.37c.4-.82.76-1.67,1.14-2.51a21.39,21.39,0,0,0,1-2.58,37,37,0,0,0,1.5-5.41c.18-.93.38-1.85.52-2.79l.24-2.84.1-1.42c0-.48,0-.9,0-1.35l-.07-2.67a41.68,41.68,0,0,0-.52-5.35,53.6,53.6,0,0,0-7.41-20.28,55.14,55.14,0,0,0-14.81-15.83,59.16,59.16,0,0,0-19.41-9.07,42.37,42.37,0,0,0-5.17-1.14l-2.6-.41a21,21,0,0,0-2.6-.31l-5.19-.33c-1.65,0-3.29,0-4.95.05a85.66,85.66,0,0,0-9.87.9,82.3,82.3,0,0,0-9.71,2.12,69,69,0,0,0-18.05,8.12,63.16,63.16,0,0,0-14.52,12.81,65.86,65.86,0,0,0-9.63,15.59,75.52,75.52,0,0,0-4.91,16.08c-.5,2.62-.83,5.2-1.08,7.71-.13,1.27-.18,2.59-.27,3.86s0,2.54,0,3.79l0,1.86.12,1.78c.1,1.18.12,2.35.29,3.5l.43,3.41c.17,1.12.4,2.22.6,3.3a69.42,69.42,0,0,0,3.47,12c.66,1.83,1.48,3.51,2.22,5.14s1.6,3.11,2.39,4.52a70.28,70.28,0,0,0,8.85,12.09c1.14,1.3,2.11,2.19,2.72,2.84s1,.94,1,.94l1,.88c.67.57,1.64,1.46,3,2.49a78,78,0,0,0,12.2,7.94,93.77,93.77,0,0,0,20.55,7.88,104.91,104.91,0,0,0,13.1,2.45c2.32.29,4.71.48,7.16.63l3.74.13c1.38,0,2.79,0,4.17,0l4.08-.39c.7-.06,1.35-.15,2-.24l1.94-.27c1.3-.17,2.6-.39,3.92-.64s2.65-.47,4-.79a101.79,101.79,0,0,0,16.31-5,84.65,84.65,0,0,0,30.87-21,79.7,79.7,0,0,0,11.47-16.33,83.19,83.19,0,0,0,7-18.91,92,92,0,0,0,2.43-19.94,104.22,104.22,0,0,0-1.59-19.94l-1.09-5c-.45-1.64-1-3.26-1.44-4.88s-1.13-3.19-1.71-4.77l-.92-2.36c-.33-.78-.71-1.53-1.06-2.29l-1.08-2.28a24.32,24.32,0,0,0-1.15-2.24l-2.49-4.36a90,90,0,0,0-5.78-8.11,81.49,81.49,0,0,0-13.84-13.73c-1.22-1-2.55-1.94-3.86-2.84s-2.58-1.86-4-2.62l-4.05-2.4-4.17-2.09a85.37,85.37,0,0,0-17-6.08c-2.84-.79-5.73-1.2-8.56-1.7a20.77,20.77,0,0,0-2.12-.28l-2.12-.21c-1.41-.11-2.8-.33-4.19-.35a100.89,100.89,0,0,0-30.74,3.3l-3.41.9-3.26,1.09c-2.15.73-4.25,1.4-6.22,2.28s-3.93,1.58-5.76,2.46L51.42,107l-1.26.64-1.2.7-2.34,1.37c-1.52.92-3,1.71-4.37,2.64L38.36,115c-1.23.86-2.42,1.62-3.47,2.49Q31.7,120,29.28,122c-1.57,1.39-2.83,2.65-3.85,3.67-2,2.07-3,3.32-2.68,3.67s1.76-.21,4.27-1.55c1.26-.66,2.76-1.56,4.53-2.56s3.87-2.07,6.15-3.34c1.12-.67,2.38-1.22,3.66-1.87l4-2c1.39-.71,2.91-1.29,4.44-2l2.35-1,1.2-.53,1.25-.46,5.18-1.93c1.78-.64,3.67-1.14,5.56-1.75s3.88-1.07,5.91-1.56l3.07-.74,3.17-.55a94.41,94.41,0,0,1,27.5-.85c1.21.09,2.4.38,3.61.56l1.81.31a16,16,0,0,1,1.81.36c2.4.6,4.84,1.1,7.22,1.94a73.08,73.08,0,0,1,14,6l3.36,1.94,3.24,2.19c1.11.69,2.09,1.56,3.14,2.36a36.29,36.29,0,0,1,3,2.52,66.5,66.5,0,0,1,10.61,11.76,74.5,74.5,0,0,1,4.28,6.73l1.8,3.57a16.35,16.35,0,0,1,.82,1.82l.76,1.85c.25.62.53,1.22.75,1.85l.62,1.9a39.35,39.35,0,0,1,1.16,3.82c.31,1.3.65,2.58.94,3.87l.65,3.93a86.87,86.87,0,0,1,.48,16.2,73.12,73.12,0,0,1-2.61,15.6,63.29,63.29,0,0,1-5.9,13.95,59,59,0,0,1-8.84,11.52,63,63,0,0,1-23.42,14.52,79.44,79.44,0,0,1-12.79,3.36c-1.05.22-2.12.36-3.18.51s-2.1.31-3.15.4l-1.56.16c-.53.06-1,.11-1.49.13l-2.77.18c-.88,0-1.72-.08-2.56-.1L98,242.16c-1.89-.18-3.72-.4-5.5-.68a81,81,0,0,1-9.91-2.22A69.17,69.17,0,0,1,67.79,233a52.77,52.77,0,0,1-8.19-5.72c-.89-.71-1.5-1.32-1.93-1.71L57,225s-.23-.19-.64-.6-1.07-1-1.82-1.78a45.13,45.13,0,0,1-5.9-7.51c-.53-.88-1.08-1.82-1.62-2.82S46,210.2,45.51,209A44.73,44.73,0,0,1,43,201.27a52.67,52.67,0,0,1-1.34-9.43c0-.82-.12-1.65-.1-2.49s0-1.67.09-2.56c.11-1.82.28-3.66.56-5.51a52.32,52.32,0,0,1,2.91-11.07,43,43,0,0,1,5.84-10.35,43.58,43.58,0,0,1,21.14-14.69,61.5,61.5,0,0,1,7-1.83,65.17,65.17,0,0,1,7.42-1c1.26-.14,2.55-.13,3.83-.21l3.63.08a11.2,11.2,0,0,1,1.81.13l1.8.2a25.16,25.16,0,0,1,3.56.62,39.84,39.84,0,0,1,13.27,5.44,36.62,36.62,0,0,1,10.3,10,36,36,0,0,1,5.63,13.27,25.74,25.74,0,0,1,.55,3.61l.15,1.83a9,9,0,0,1,.06.9l0,.82,0,1.65c-.05.55-.16,1.09-.23,1.64a20.69,20.69,0,0,1-.7,3.26,9.89,9.89,0,0,1-.54,1.59l-.6,1.59-.78,1.53a10,10,0,0,1-.83,1.51,24.57,24.57,0,0,1-2,2.87c-.37.46-.71.93-1.09,1.38L123,197.28a29.9,29.9,0,0,1-2.59,2.42,13.54,13.54,0,0,1-1.4,1.09l-1.43,1.06c-1,.6-2,1.26-3,1.82l-1.59.78a11.37,11.37,0,0,1-1.61.72,28.74,28.74,0,0,1-3.31,1.16l-1.68.48c-.56.17-1.13.22-1.7.34l-1.7.32-1.71.15c-.57,0-1.15.12-1.7.14l-1.62,0a9.74,9.74,0,0,1-1.6-.11c-.53-.07-1.07-.09-1.59-.18a26,26,0,0,1-3.09-.73,24,24,0,0,1-5.72-2.52,23.27,23.27,0,0,1-11.29-19.55,17,17,0,0,1,.69-5.17,16.77,16.77,0,0,1,2.05-4.57,17.2,17.2,0,0,1,5-5.14,16.52,16.52,0,0,1,2-1.19,19.19,19.19,0,0,1,8.4-2,16.33,16.33,0,0,1,7.26,1.26,13,13,0,0,1,6.76,7.78c.27.62.41,1.2.59,1.7s.3.93.43,1.28C108,179.25,108.28,179.63,108.5,179.63Z" transform="translate(-7.22 -12.74)"/></svg>