<svg xmlns="http://www.w3.org/2000/svg" width="210" height="59.063" viewBox="0 0 800 225">
  <defs>
    <style>
      .cls-1 {
        fill: #993;
      }

      .cls-1, .cls-2 {
        fill-rule: evenodd;
      }

      .cls-2 {
        fill: #336;
      }
    </style>
  </defs>
  <path id="Wholesale_Organic_Body_Jewelry" data-name="Wholesale Organic Body Jewelry" class="cls-1" d="M12.939,203.68c-0.16-1.2-.84-5.959-1.28-7.878l-1.04-5.839h2.32v-5.2h-13.2v5.2H1.98l5.279,22.756h9.278l2.44-9.6c0.28-1.159.8-3.679,0.96-4.879H20.1c0.2,1.24.64,3.6,1,4.959l2.4,9.519h9.478l5.959-22.756h2.2v-5.2H29.7v5.2h2.2l-1.36,6.079c-0.36,1.679-1.04,5.839-1.2,7.638h-0.2a79.493,79.493,0,0,0-1.2-7.878l-2.52-11.039H17.1l-2,9c-0.8,3.8-1.88,8.8-1.96,9.918h-0.2Zm28.4-18.917v5.28h2.2v17.4h-2.2v5.279H54.3V207.44h-2.48V201.4h7.6v6.039h-2.36v5.279h13V207.44h-2.32v-17.4h2.32v-5.28h-13v5.28h2.36v6.039h-7.6v-6.039H54.3v-5.28H41.34Zm44.237,28.676c9.039,0,14.078-5.519,14.078-14.558,0-9-4.559-14.877-14.358-14.877-8.279,0-14.038,5.959-14.038,14.6C71.26,208.6,77.219,213.439,85.578,213.439Zm0-6.279c-2.56,0-4.439-3.32-4.439-8.559,0-4.959,1.68-8.478,4.119-8.438,3.079,0,4.4,3.879,4.4,8.718C89.657,203.84,88.1,207.16,85.578,207.16Zm15.282-22.4v5.28h2.2V207.4h-2.2v5.319h22.4v-10.4h-6.719v5.08h-5.159V190.043h2.12v-5.28H100.86Zm24,0v5.28h2.52V207.4h-2.52v5.319h24.116V203.68h-6.919v3.72h-6.4v-6.519h7.6v-5.319h-7.6v-5.519h6.4V193.6h6.919v-8.839H124.859Zm25.72,27.956h7l0.44-3.08a10.781,10.781,0,0,0,8.358,3.68c4.76,0,10.6-2.24,10.6-8.479,0-9.4-15.838-8.439-15.838-12.558,0-1.4,1.6-2.119,2.76-2.119,2.8,0,5.119,1.679,5.119,4.639h7.239V184.763h-6.879l-0.4,3.36c-1.6-3-5-4.079-8.359-4.079-3.919,0-9.518,2.679-9.518,8.6,0,10.2,15.357,8.879,15.357,12,0,1.68-2,2-3.4,2-1.68-.08-5.039-0.64-5.039-4h-7.439v10.079Zm59.314,0V207.48h-2.8l-7.079-22.717H184.658v5.16H186.3l-5.4,17.557h-2.719v5.239H190.9V207.48h-3.12l0.84-2.72h8.2l0.84,2.72h-3.8v5.239h16.037Zm-19.8-12.758,2.6-8.639,2.64,8.639H190.1Zm21-15.2v5.28h2.2V207.4h-2.2v5.319h22.4v-10.4h-6.719v5.08h-5.159V190.043h2.12v-5.28H211.1Zm24,0v5.28h2.52V207.4H235.1v5.319h24.116V203.68H252.3v3.72h-6.4v-6.519h7.6v-5.319h-7.6v-5.519h6.4V193.6h6.919v-8.839H235.1Zm49.238,28.676c9.038,0,14.077-5.519,14.077-14.558,0-9-4.559-14.877-14.357-14.877-8.279,0-14.038,5.959-14.038,14.6C270.018,208.6,275.977,213.439,284.336,213.439Zm0-6.279c-2.56,0-4.44-3.32-4.44-8.559,0-4.959,1.68-8.478,4.12-8.438,3.079,0,4.4,3.879,4.4,8.718C288.415,203.84,286.855,207.16,284.336,207.16Zm15.282-22.4V190h2.239V207.44h-2.239v5.279h12.917V207.44H310.1v-6.2c3.559,0,4,.88,4,4.519,0,4.679,2.52,7.439,7.759,7.439,4.439,0,5.839-3.08,5.839-6.4v-2.2h-2.68v1.32a1.035,1.035,0,0,1-.919,1.28c-0.72,0-.96-1-0.96-2.72A6.061,6.061,0,0,0,317.9,198.8c3.319-.48,5.8-2.679,5.8-5.8,0-4.559-1.8-8.239-11.079-8.239h-13Zm10.478,5.2h2c2.319,0,3.639,1.2,3.639,3.559,0,2.12-1.52,3.239-3.839,3.239h-1.8v-6.8Zm38.438,22.756h8v-10h1.6v-4.279H344.855v4.279h2.44v1.68c-0.6,1.04-1.56,1.96-3.84,1.96-3.479,0-5.479-3.28-5.479-7.359,0-4,2.24-7.519,5.479-7.519,2.36,0,4.439,1.84,4.559,5.079h7.159v-11.8h-5.959l-0.84,2.88c-0.64-.64-2-3.359-7.8-3.359-6.239,0-12.278,6-12.278,14.717,0,8.639,5.559,14.078,12.558,14.078,3.079,0,5.559-1.4,6.439-2.88Zm42.118,0V207.48h-2.8l-7.079-22.717H365.416v5.16h1.64l-5.4,17.557h-2.72v5.239h12.718V207.48h-3.119l0.839-2.72h8.2l0.84,2.72h-3.8v5.239h16.037Zm-19.8-12.758,2.6-8.639,2.639,8.639h-5.239Zm51.637-10.038v-5.16H410.454v5.16h2.719v9.518l-9.8-14.678H391.9v5.16h2.32V207.56h-2.36v5.159h12.278V207.56h-3.08V197.481l10.2,15.238h8.6v-22.8h2.64Zm1.6-5.16v5.28h2.519V207.4H424.1v5.319h13.278V207.4H434.9V190.043h2.48v-5.28H424.1ZM460.133,202.6c-0.36.4-3,3.92-6.359,3.92-3.8,0-5.839-3.56-5.839-7.519,0-4.359,1.879-7.919,4.759-7.919,2.84,0,4.119,2.44,4.239,5.04h7.159V184.763h-6.279l-0.92,2.24a7.4,7.4,0,0,0-6.159-2.719c-5.239,0-12.158,5.519-12.158,14.717,0,8.919,5.639,14.358,14.118,14.358a16.408,16.408,0,0,0,12.118-5.639Zm15.483,10.119h15.2c7.719,0,10.878-2.48,10.878-8.119a6.7,6.7,0,0,0-5.279-6.8c3-1.2,3.92-2.839,3.92-6.2,0-4.359-3.16-6.839-9.8-6.839H475.616v5.16h2.319v17.6h-2.319v5.2Zm10.6-22.676h2.52a2.623,2.623,0,0,1,2.639,2.919c0,1.92-.6,3.08-2.719,3.08h-2.44v-6Zm0,17.477v-6.959h3.08a3.193,3.193,0,0,1,3.359,3.519,3.251,3.251,0,0,1-3.239,3.44h-3.2Zm30.4,5.919c9.039,0,14.078-5.519,14.078-14.558,0-9-4.559-14.877-14.358-14.877-8.278,0-14.037,5.959-14.037,14.6C502.3,208.6,508.255,213.439,516.613,213.439Zm0-6.279c-2.559,0-4.439-3.32-4.439-8.559,0-4.959,1.68-8.478,4.119-8.438,3.08,0,4.4,3.879,4.4,8.718C520.693,203.84,519.133,207.16,516.613,207.16Zm15.282,5.559h12.038c9.839,0,15.358-5.239,15.358-14.358,0-7.639-5.519-13.6-15.2-13.6H531.9v5.28h2.48V207.4H531.9v5.319Zm10.679-5.319V190.043h1.519c4.24,0,6,4.039,6,8.318,0,5-1.759,8.959-6,9.039h-1.519Zm31.478-10.039c-0.16-.68-1-2.479-1.239-3.239l-2.32-4.239h2.08v-5.12H558.9v5.12h1.96l7.758,12.917v4.72h-2.279v5.2h12.8v-5.2h-2.24v-4.64l7.4-13h2.159v-5.12H575.692v5.12h2.2l-2.2,4.039a24.064,24.064,0,0,0-1.48,3.439h-0.16Zm22,23.076a6.07,6.07,0,0,0,2.12.44c8.239,0,11.278-4.039,11.278-11.118V190h3.32v-5.24H597.734V190h3.44v19.756c0,4.28-1.32,5.759-3.32,5.759a4.128,4.128,0,0,1-1.8-.36v5.279Zm18.32-35.674v5.28h2.52V207.4h-2.52v5.319H638.49V203.68h-6.919v3.72h-6.4v-6.519h7.6v-5.319h-7.6v-5.519h6.4V193.6h6.919v-8.839H614.374Zm37.518,18.917c-0.16-1.2-.84-5.959-1.279-7.878l-1.04-5.839h2.319v-5.2H638.7v5.2h2.239l5.279,22.756h9.279l2.439-9.6c0.28-1.159.8-3.679,0.96-4.879h0.16c0.2,1.24.64,3.6,1,4.959l2.4,9.519h9.478l5.959-22.756h2.2v-5.2H668.65v5.2h2.2l-1.36,6.079c-0.36,1.679-1.039,5.839-1.2,7.638h-0.2a79.469,79.469,0,0,0-1.2-7.878l-2.52-11.039h-8.318l-2,9c-0.8,3.8-1.88,8.8-1.96,9.918h-0.2Zm28.4-18.917v5.28h2.52V207.4h-2.52v5.319H704.41V203.68h-6.919v3.72h-6.4v-6.519h7.6v-5.319h-7.6v-5.519h6.4V193.6h6.919v-8.839H680.294Zm25.72,0v5.28h2.2V207.4h-2.2v5.319h22.4v-10.4h-6.719v5.08h-5.159V190.043h2.119v-5.28H706.014Zm24,0V190h2.239V207.44h-2.239v5.279h12.918V207.44h-2.44v-6.2c3.559,0,4,.88,4,4.519,0,4.679,2.52,7.439,7.759,7.439,4.439,0,5.839-3.08,5.839-6.4v-2.2h-2.68v1.32a1.035,1.035,0,0,1-.919,1.28c-0.72,0-.96-1-0.96-2.72a6.061,6.061,0,0,0-5.239-5.679c3.319-.48,5.8-2.679,5.8-5.8,0-4.559-1.8-8.239-11.079-8.239h-13Zm10.478,5.2h2c2.319,0,3.639,1.2,3.639,3.559,0,2.12-1.52,3.239-3.839,3.239h-1.8v-6.8Zm32.359,7.4c-0.16-.68-1-2.479-1.239-3.239l-2.32-4.239h2.08v-5.12H757.694v5.12h1.96l7.758,12.917v4.72h-2.279v5.2h12.8v-5.2h-2.24v-4.64l7.4-13h2.159v-5.12H774.491v5.12h2.2l-2.2,4.039a24.064,24.064,0,0,0-1.48,3.439h-0.16Z"/>
  <path id="_." data-name="." class="cls-1" d="M530.236,137.48c0,11.023,9.775,22.461,23.5,22.461,15.6,0,23.918-9.983,23.918-22.461,0-10.607-8.736-23.71-23.918-23.71S530.236,126.873,530.236,137.48Z"/>
  <path id="Siam" class="cls-2" d="M2.02,158.109h36.4L40.7,142.1c7.9,9.359,22.462,19.134,43.467,19.134,24.749,0,55.114-11.647,55.114-44.091,0-48.875-82.359-43.883-82.359-65.305,0-7.279,8.319-11.023,14.35-11.023,14.558,0,26.621,8.735,26.621,24.125h37.644v-52.2H99.769L97.689,30.2c-8.319-15.6-26-21.214-43.467-21.214-20.382,0-49.5,13.934-49.5,44.715,0,53.034,79.863,46.171,79.863,62.393,0,8.735-10.4,10.4-17.678,10.4-8.735-.416-26.205-3.328-26.205-20.8H2.02v52.41ZM155.5,23.756c0,9.983,9.359,21.006,22.462,21.006,14.766,0,22.877-9.567,22.877-21.006,0-9.567-8.527-21.214-22.877-21.214C163.406,2.542,155.5,14.189,155.5,23.756Zm52.411,134.353V130.864h-9.983V54.121H149.68V81.158h8.735v49.706H149.68v27.245h58.234Zm21.418-71.128c7.9-4.367,18.718-9.567,30.988-9.567,11.231,0,19.758,2.288,19.758,11.647V96.34c-1.04-1.248-8.319-7.279-20.59-7.279-23.5,0-43.259,14.766-43.259,38.268,0,24.125,21.214,34.732,40.972,34.732,7.487,0,20.381-2.7,28.077-13.311l4.991,9.359h44.507V131.488H322.3V90.933c0-33.484-31.4-42.843-56.361-42.843-19.134,0-37.02,9.775-45.339,14.766Zm50.746,41.18c-1.872,3.119-7.071,6.863-13.31,6.863s-11.023-3.952-11.023-9.775c0-6.447,3.743-11.023,12.062-11.023,8.735,0,11.647,4.992,12.271,6.032v7.9Zm124.783,29.948V130.864H392.382V93.844c0-8.527,2.7-12.479,9.359-12.479,8.319,0,8.735,6.863,8.735,23.709v53.034h53.866V130.24H451.864V96.548c0-8.943,2.08-15.182,11.023-15.182,9.775,0,7.9,15.806,7.9,25.789v50.954h52.826V130.032H513.425v-28.7c0-25.374-5.2-49.915-38.892-49.915-14.35,0-24.125,7.7-30.572,14.974-3.328-4.992-9.983-14.974-30.989-14.974-13.1,0-22.669,11.231-26,15.182L382.4,54.329H343.092V81.782h8.735v49.082h-8.735v27.245h61.769Z"/>
</svg>
