<svg xmlns="http://www.w3.org/2000/svg" viewBox="0 0 1280 1024"><defs><style>.a{fill:#d9b310;}.b{fill:#fff;}</style></defs><title>Artboard 1</title><path class="a" d="M316.64,543.2c-2.15-35.21-22.5-53.83-45.92-72.38-1.65-1.35-3.33,0-2.43,1.68a43.06,43.06,0,0,1,4.17,11.14c6.13,24.2,3.37,59.77-24,89.3-35.53,38.26-98.25,39.27-130.1,8.38-80.07-77.68,11-182.87,82-128.4,18.05,13.85,19.14,41.36,10.61,56.13-6.69,11.58-22.54,14.24-21.6,11.37,10.3-31.52-36.61-48.85-47-13.13-9.84,33.83,43,58.48,75.95,34,13.73-10.21,26.09-29.31,27.32-52.76.84-16.12-2.84-31.6-15.49-52.22-13.52-22.81-26.26-50.25-6.54-99.93a1.62,1.62,0,0,0-2.55-1.84C132.54,409.46,41.41,463.21,41.49,546.9c-3,27.74,35.3,135,135.94,73.92C287.35,680.91,321.47,570,316.64,543.2Z"/><path class="a" d="M177.42,620.82l-1.47,31.73a128.94,128.94,0,0,1-11,35l9.28,2.8h0l9.28,2.8a141.54,141.54,0,0,0-6-72.28Z"/><path class="b" d="M382.77,450.35c23.25,10.58,55,19.55,96.09,19.55,22.06,0,47.21-2.76,47.21-11.73,0-7.13-15.9-8.28-38-9.66-81.61-5.06-119.34-18.4-119.34-56.12,0-44.16,49.35-60.49,106.05-60.49,37.25,0,70.7,7.59,94.9,17.71L551,391.69c-19.69-7.82-48.87-13.8-79.71-13.8-23.49,0-45.55,2.76-45.55,11.73,0,6.44,11.15,8,31.08,9.2C528,402.73,583,412.17,583,455.64c0,40.48-44.6,60.26-107,60.26-54.33,0-89.68-12.42-113.88-23.46Z"/><path class="b" d="M618.59,337.64h56.94V510.15H618.59Z"/><path class="b" d="M897.12,485.77H770l-26.1,33.58-42.23-30.13L833.53,325,965.44,489.22l-42.23,30.13Zm-63.58-81.66-29.65,38h59.31Z"/><path class="b" d="M991.54,327.29l125.27,83.27,125.27-83.27V510.15h-56.94v-84L1116.81,475l-68.33-48.76v84H991.54Z"/><path class="b" d="M464,627.19V585.1a27.36,27.36,0,1,1,54.72,0v42.09a27.36,27.36,0,1,1-54.72,0Zm12.63-42.09v42.09a14.73,14.73,0,1,0,29.47,0V585.1a14.73,14.73,0,0,0-29.47,0Z"/><path class="b" d="M567.11,648.24V564.89a6.2,6.2,0,0,1,6.31-6.31h21a28.23,28.23,0,0,1,13.68,3.58,6.5,6.5,0,0,1,2.31,8.63,6.09,6.09,0,0,1-8.63,2.31,15.36,15.36,0,0,0-7.37-1.89H579.74v77a6.31,6.31,0,0,1-12.63,0Z"/><path class="b" d="M649,626.35V585.94a27.31,27.31,0,0,1,27.36-27.36h21a6.2,6.2,0,0,1,6.31,6.31V669.28a27,27,0,0,1-16.84,25.26A27.61,27.61,0,0,1,657,688.65a6.1,6.1,0,0,1,0-8.84,6.35,6.35,0,0,1,9.05,0A14.58,14.58,0,0,0,682,683a14.94,14.94,0,0,0,9-13.68V653.71H676.35A27.31,27.31,0,0,1,649,626.35Zm12.63-40.41v40.41a14.78,14.78,0,0,0,14.73,14.73h14.73V571.21H676.35A14.78,14.78,0,0,0,661.61,585.94Z"/><path class="b" d="M787.47,599V584.67a14.5,14.5,0,0,0-8.84-13.26,14.2,14.2,0,0,0-15.57,3.16,6.35,6.35,0,0,1-9,0,6.1,6.1,0,0,1,0-8.84,27,27,0,0,1,46.09,18.94v62.72a6.33,6.33,0,0,1-6.31,6.31h-21a27.36,27.36,0,1,1,0-54.72Zm-14.73,42.09h14.73V611.61H772.74a14.73,14.73,0,1,0,0,29.47Z"/><path class="b" d="M849.35,648.24V564.89a6.2,6.2,0,0,1,6.31-6.31h21a27.44,27.44,0,0,1,27.36,27.36v62.3a6.33,6.33,0,0,1-6.31,6.31,6.2,6.2,0,0,1-6.31-6.31v-62.3a14.78,14.78,0,0,0-14.73-14.73H862v77a6.33,6.33,0,0,1-6.31,6.31A6.2,6.2,0,0,1,849.35,648.24Z"/><path class="b" d="M959.64,654.55a6.33,6.33,0,0,1-6.31-6.31V564a6.33,6.33,0,0,1,6.31-6.31,6.2,6.2,0,0,1,6.31,6.31v84.19A6.2,6.2,0,0,1,959.64,654.55Z"/><path class="b" d="M1014.36,627.19V585.1a27,27,0,0,1,16.84-25.26,27.61,27.61,0,0,1,29.89,5.89,6.4,6.4,0,0,1-9,9.05,14.65,14.65,0,0,0-16-3.37,14.94,14.94,0,0,0-9,13.68v42.09a15,15,0,0,0,9,13.68,14.58,14.58,0,0,0,16-3.16,6.35,6.35,0,0,1,9,0,6.49,6.49,0,0,1,0,8.84,27.61,27.61,0,0,1-29.89,5.89A27,27,0,0,1,1014.36,627.19Z"/><path class="b" d="M1139.37,627.61a12.86,12.86,0,0,0-5.68-10.1l-19.57-13.89a25.53,25.53,0,0,1-10.73-18.94,25,25,0,0,1,8.21-20.21,25,25,0,0,1,38.94,5.89,6.32,6.32,0,0,1-10.94,6.31,12.56,12.56,0,0,0-9-6.1,12.25,12.25,0,0,0-10.52,3.16,12.88,12.88,0,0,0-4,10.1,12.39,12.39,0,0,0,5.47,9.47L1141.06,607A25.75,25.75,0,0,1,1152,626.77a25.12,25.12,0,0,1-8.42,20.84,25.85,25.85,0,0,1-40.2-6.1,6.32,6.32,0,0,1,10.94-6.31,13.23,13.23,0,0,0,9.68,6.52,13.7,13.7,0,0,0,11.15-3.37A13,13,0,0,0,1139.37,627.61Z"/></svg>