<svg id="Layer_1" data-name="Layer 1" xmlns="http://www.w3.org/2000/svg" viewBox="0 0 151.1 41.87"><defs><style>.cls-1{fill:#993;}.cls-2{fill:#336;}</style></defs><title>siam_logo_simple</title><path id="_." data-name=" ." class="cls-1" d="M138.66,35.42a6.15,6.15,0,0,0,6.17,5.9c4.09,0,6.28-2.62,6.28-5.9a6.32,6.32,0,0,0-6.28-6.22A6.22,6.22,0,0,0,138.66,35.42Z"/><path id="Siam" class="cls-2" d="M0,40.84H9.56l.6-4.2a14.72,14.72,0,0,0,11.41,5C28.06,41.66,36,38.6,36,30.08c0-12.83-21.62-11.52-21.62-17.14C14.41,11,16.6,10,18.18,10c3.82,0,7,2.29,7,6.33H35V2.68H25.66l-.55,4.58C22.93,3.17,18.29,1.69,13.7,1.69c-5.35,0-13,3.66-13,11.74,0,13.92,21,12.12,21,16.38,0,2.29-2.73,2.73-4.64,2.73-2.29-.11-6.88-.87-6.88-5.46H0V40.84ZM40.29,5.57a5.88,5.88,0,0,0,5.9,5.51c3.88,0,6-2.51,6-5.51a5.87,5.87,0,0,0-6-5.57A5.73,5.73,0,0,0,40.29,5.57ZM54,40.84V33.68H51.43V13.54H38.76v7.1h2.29v13H38.76v7.15H54Zm5.62-18.67a17,17,0,0,1,8.13-2.51c2.95,0,5.19.6,5.19,3.06v1.91a7.75,7.75,0,0,0-5.4-1.91c-6.17,0-11.36,3.88-11.36,10,0,6.33,5.57,9.12,10.76,9.12a9.26,9.26,0,0,0,7.37-3.49l1.31,2.46H87.35v-7H84.07V23.2C84.07,14.41,75.83,12,69.28,12c-5,0-9.72,2.57-11.9,3.88ZM73,33a4.29,4.29,0,0,1-3.49,1.8,2.65,2.65,0,0,1-2.89-2.57c0-1.69,1-2.89,3.17-2.89A3.41,3.41,0,0,1,73,30.9V33Zm32.76,7.86V33.68h-3.27V24c0-2.24.71-3.28,2.46-3.28,2.18,0,2.29,1.8,2.29,6.22V40.84h14.14V33.52h-3.28V24.68c0-2.35.55-4,2.89-4,2.57,0,2.07,4.15,2.07,6.77V40.84h13.87V33.47h-2.67V25.93c0-6.66-1.37-13.1-10.21-13.1a10.56,10.56,0,0,0-8,3.93c-.87-1.31-2.62-3.93-8.13-3.93-3.44,0-6,2.95-6.82,4l-1.2-3.22H89.53V20.8h2.29V33.68H89.53v7.15h16.21Z"/></svg>