<svg xmlns="http://www.w3.org/2000/svg" viewBox="0 0 1589.8 387.81"><defs><style>.a{fill:#393f4d;}.b{fill:#d9b310;}</style></defs><title>Siam Organics Logo</title><path class="a" d="M385.71,220.19c32.58,14.83,77.13,27.4,134.64,27.4,30.92,0,66.16-3.87,66.16-16.44,0-10-22.27-11.6-53.19-13.54C419,210.52,366.1,191.83,366.1,139c0-61.88,69.15-84.77,148.6-84.77,52.19,0,99.07,10.64,133,24.82l-26.26,59c-27.59-11-68.48-19.34-111.7-19.34-32.91,0-63.83,3.87-63.83,16.44,0,9,15.63,11.28,43.55,12.89,99.73,5.48,176.86,18.69,176.86,79.61,0,56.73-62.5,84.45-149.93,84.45-76.13,0-125.66-17.4-159.57-32.88Z"/><path class="a" d="M716.16,62.26h79.79V304H716.16Z"/><path class="a" d="M1106.44,269.83H928.25l-36.57,47.06-59.17-42.22L1017.34,44.53l184.84,230.13L1143,316.88Zm-89.09-114.42-41.55,53.18h83.11Z"/><path class="a" d="M1238.74,47.75l175.53,116.68L1589.8,47.75V304H1510V186.35l-95.74,68.33-95.74-68.33V304h-79.79Z"/><path class="b" d="M297.42,225.88c-2.32-38-24.31-58.16-49.61-78.19-1.78-1.46-3.6,0-2.63,1.82a46.52,46.52,0,0,1,4.5,12c6.62,26.14,3.64,64.57-26,96.47-38.38,41.33-106.14,42.43-140.55,9C-3.35,183.14,95,69.49,171.71,128.34c19.5,15,20.67,44.69,11.46,60.64-7.23,12.51-24.35,15.38-23.34,12.28C171,167.21,120.27,148.49,109,187.07c-10.63,36.55,46.45,63.18,82,36.71,14.84-11,28.19-31.67,29.51-57,.91-17.42-3.07-34.14-16.73-56.41-14.6-24.64-28.37-54.28-7.07-108a1.75,1.75,0,0,0-2.76-2c-95.5,81-194,139-193.87,229.44C-3,259.84,38.31,375.72,147,309.73,265.79,374.64,302.65,254.85,297.42,225.88Z"/><path class="b" d="M147,309.73,145.43,344a139.3,139.3,0,0,1-11.92,37.77l10,3h0l10,3A152.9,152.9,0,0,0,147,309.73Z"/></svg>