<svg xmlns="http://www.w3.org/2000/svg" viewBox="0 0 1200.75 371.62"><defs><style>.a{fill:#d9b310;}.b{fill:#393f4d;}</style></defs><title>Artboard 1</title><path class="a" d="M275.31,218.21c-2.15-35.21-22.5-53.83-45.92-72.38-1.65-1.35-3.33,0-2.43,1.68a43.06,43.06,0,0,1,4.17,11.14c6.13,24.2,3.37,59.77-24,89.3-35.53,38.26-98.25,39.27-130.1,8.38-80.07-77.68,11-182.87,82-128.4,18.05,13.85,19.14,41.36,10.61,56.13-6.69,11.58-22.54,14.24-21.6,11.37,10.3-31.52-36.61-48.85-47-13.13-9.84,33.83,43,58.48,75.95,34C190.62,206.06,203,187,204.2,163.5c.84-16.12-2.84-31.6-15.49-52.22C175.2,88.48,162.45,61,182.17,11.36a1.62,1.62,0,0,0-2.55-1.84C91.21,84.47.08,138.23.16,221.91c-3,27.74,35.3,135,135.94,73.92C246,355.92,280.15,245,275.31,218.21Z"/><path class="a" d="M136.09,295.83l-1.47,31.73a128.94,128.94,0,0,1-11,35l9.28,2.8h0l9.28,2.8a141.54,141.54,0,0,0-6-72.28Z"/><path class="b" d="M341.44,125.36c23.25,10.58,55,19.55,96.09,19.55,22.06,0,47.21-2.76,47.21-11.73,0-7.13-15.9-8.28-38-9.66-81.61-5.06-119.34-18.4-119.34-56.12,0-44.16,49.35-60.49,106.05-60.49,37.25,0,70.7,7.59,94.9,17.71L509.64,66.7C490,58.88,460.77,52.9,429.93,52.9c-23.49,0-45.55,2.76-45.55,11.73,0,6.44,11.15,8,31.08,9.2,71.17,3.91,126.22,13.34,126.22,56.81,0,40.48-44.6,60.26-107,60.26-54.33,0-89.68-12.42-113.88-23.46Z"/><path class="b" d="M577.26,12.65H634.2V185.16H577.26Z"/><path class="b" d="M855.79,160.78H728.62l-26.1,33.58L660.3,164.23,792.21,0,924.12,164.23l-42.23,30.13ZM792.21,79.12l-29.65,38h59.31Z"/><path class="b" d="M950.21,2.3l125.27,83.27L1200.75,2.3V185.16h-56.94v-84L1075.48,150l-68.33-48.76v84H950.21Z"/><path class="b" d="M422.66,302.2V260.11a27.36,27.36,0,0,1,54.72,0V302.2a27.36,27.36,0,0,1-54.72,0Zm12.63-42.09V302.2a14.73,14.73,0,0,0,29.47,0V260.11a14.73,14.73,0,1,0-29.47,0Z"/><path class="b" d="M525.79,323.25V239.9a6.2,6.2,0,0,1,6.31-6.31h21a28.23,28.23,0,0,1,13.68,3.58,6.5,6.5,0,0,1,2.31,8.63,6.09,6.09,0,0,1-8.63,2.31,15.36,15.36,0,0,0-7.37-1.89H538.41v77a6.31,6.31,0,0,1-12.63,0Z"/><path class="b" d="M607.66,301.36V260.95A27.31,27.31,0,0,1,635,233.59h21a6.2,6.2,0,0,1,6.31,6.31V344.29a27,27,0,0,1-16.84,25.26,27.61,27.61,0,0,1-29.89-5.89,6.1,6.1,0,0,1,0-8.84,6.35,6.35,0,0,1,9.05,0,14.58,14.58,0,0,0,16,3.16,14.94,14.94,0,0,0,9-13.68V328.72H635A27.31,27.31,0,0,1,607.66,301.36Zm12.63-40.41v40.41A14.78,14.78,0,0,0,635,316.09h14.73V246.22H635A14.78,14.78,0,0,0,620.29,260.95Z"/><path class="b" d="M746.14,274V259.69a14.5,14.5,0,0,0-8.84-13.26,14.2,14.2,0,0,0-15.57,3.16,6.35,6.35,0,0,1-9,0,6.1,6.1,0,0,1,0-8.84,27,27,0,0,1,46.09,18.94V322.4a6.33,6.33,0,0,1-6.31,6.31h-21a27.36,27.36,0,1,1,0-54.72Zm-14.73,42.09h14.73V286.63H731.41a14.73,14.73,0,1,0,0,29.47Z"/><path class="b" d="M808,323.25V239.9a6.2,6.2,0,0,1,6.31-6.31h21a27.44,27.44,0,0,1,27.36,27.36v62.3a6.33,6.33,0,0,1-6.31,6.31,6.2,6.2,0,0,1-6.31-6.31v-62.3a14.78,14.78,0,0,0-14.73-14.73H820.65v77a6.33,6.33,0,0,1-6.31,6.31A6.2,6.2,0,0,1,808,323.25Z"/><path class="b" d="M918.31,329.56a6.33,6.33,0,0,1-6.31-6.31V239.06a6.33,6.33,0,0,1,6.31-6.31,6.2,6.2,0,0,1,6.31,6.31v84.19A6.2,6.2,0,0,1,918.31,329.56Z"/><path class="b" d="M973,302.2V260.11a27,27,0,0,1,16.84-25.26,27.61,27.61,0,0,1,29.89,5.89,6.4,6.4,0,0,1-9,9.05,14.65,14.65,0,0,0-16-3.37,14.94,14.94,0,0,0-9,13.68V302.2a15,15,0,0,0,9,13.68,14.58,14.58,0,0,0,16-3.16,6.35,6.35,0,0,1,9,0,6.49,6.49,0,0,1,0,8.84,27.61,27.61,0,0,1-29.89,5.89A27,27,0,0,1,973,302.2Z"/><path class="b" d="M1098,302.62a12.86,12.86,0,0,0-5.68-10.1l-19.57-13.89a25.53,25.53,0,0,1-10.73-18.94,25,25,0,0,1,8.21-20.21,25,25,0,0,1,38.94,5.89,6.32,6.32,0,1,1-10.94,6.31,12.56,12.56,0,0,0-9-6.1,12.25,12.25,0,0,0-10.52,3.16,12.88,12.88,0,0,0-4,10.1,12.39,12.39,0,0,0,5.47,9.47L1099.73,282a25.75,25.75,0,0,1,10.94,19.78,25.12,25.12,0,0,1-8.42,20.84,25.85,25.85,0,0,1-40.2-6.1A6.32,6.32,0,1,1,1073,310.2a13.23,13.23,0,0,0,9.68,6.52,13.7,13.7,0,0,0,11.15-3.37A13,13,0,0,0,1098,302.62Z"/></svg>